<svg width="43.002" height="45" version="1.1" viewBox="0 0 11.378 11.906" xmlns="http://www.w3.org/2000/svg">
 <g transform="translate(-43.756 72.987)">
  <path d="m43.756-70.87c0.14722 0.27955 0.31583 0.55045 0.47444 0.82375 0.04516 0.07776 0.08906 0.15634 0.1349 0.23369 0.01723 0.02907 0.05591 0.07449 0.05968 0.10808 0.0036 0.03231-0.03301 0.08673-0.04507 0.11684-0.03818 0.09543-0.07379 0.19192-0.10691 0.28919-0.10192 0.29941-0.17801 0.61007-0.22414 0.92306-0.15511 1.0529-0.0036 2.1305 0.4412 3.0993 0.56804 1.2371 1.617 2.2314 2.8764 2.7441 0.29617 0.12055 0.60394 0.2173 0.91722 0.28218 0.1105 0.02287 0.22133 0.04358 0.333 0.06012 0.03502 0.0052 0.07011 0.0098 0.10516 0.01461 0.01428 2e-3 0.03371 7.31e-4 0.04662 0.0076 0.01989 0.01057 0.03272 0.04484 0.0435 0.06374l0.09391 0.16358c0.11649 0.2038 0.23156 0.40916 0.35228 0.61051 0.03348 0.05585 0.06607 0.11264 0.09797 0.16942 0.01133 0.02018 0.02521 0.0602 0.04496 0.07294 0.01607 0.0104 0.05842 0.0038 0.07729 3e-3 0.02527-0.0011 0.03768-0.04218 0.0491-0.06129 0.03981-0.06651 0.0777-0.13428 0.1162-0.20156 0.11103-0.19411 0.22773-0.38541 0.33558-0.5813 0.03245-0.05898 0.06689-0.11711 0.10086-0.17526 0.01171-0.02004 0.02427-0.05763 0.0444-0.07014 0.03257-0.02024 0.09882-0.0163 0.13674-0.02261 0.10758-0.01794 0.21479-0.03686 0.32132-0.06038 0.32176-0.07107 0.63671-0.17045 0.94059-0.29795 1.2232-0.5133 2.218-1.4738 2.7947-2.6657 0.45987-0.95046 0.6264-2.0503 0.47611-3.0934-0.04531-0.31451-0.11673-0.6233-0.21344-0.92599-0.03082-0.09637-0.06485-0.19232-0.10241-0.28627l-0.03228-0.08179c-0.0048-0.01212-0.01504-0.02737-0.01335-0.0409 4e-3 -0.03158 0.03902-0.07168 0.05474-0.09932 0.04668-0.08205 0.09467-0.16338 0.14147-0.24537 0.16682-0.2922 0.34814-0.57864 0.50491-0.87633h-1.2824c-0.0357 0-0.09219 0.01084-0.12558-0.0018-0.03026-0.01145-0.06064-0.06964-0.08065-0.09464-0.06137-0.07671-0.12453-0.15286-0.1913-0.22492-0.226-0.24391-0.46516-0.47302-0.73001-0.67511-0.72735-0.55496-1.5914-0.92731-2.4975-1.0608-0.23135-0.03409-0.46729-0.06017-0.70106-0.06055-0.35503-5.78e-4 -0.70726 0.0199-1.0574 0.08303-0.81522 0.14699-1.5963 0.47626-2.2638 0.96823-0.27639 0.20372-0.54017 0.43204-0.77067 0.6868-0.07948 0.08784-0.15765 0.17676-0.2324 0.26874-0.02039 0.02512-0.04081 0.0503-0.06056 0.07595-0.0086 0.01119-0.01799 0.02807-0.03181 0.0333-0.0319 0.01203-0.08565 0.0018-0.11974 0.0018h-1.2327m9.2073 0h-1.4021c-0.05013 0-0.11179 0.0098-0.16066-0.0011-0.01934-0.0044-0.03821-0.01934-0.0555-0.02874-0.04075-0.02217-0.08121-0.04504-0.12268-0.06578-0.12864-0.06438-0.25968-0.12397-0.39435-0.17474-0.44027-0.16609-0.91413-0.25755-1.3846-0.25831-0.47068-7.6e-4 -0.94232 0.08322-1.3846 0.24552-0.14036 0.05153-0.27835 0.11153-0.41187 0.17877-0.04531 0.02281-0.08982 0.04738-0.13437 0.07163-0.01928 0.01049-0.03964 0.02696-0.06134 0.03166-0.05007 0.01084-0.11232 0.0011-0.16358 0.0011h-1.4167c0.01528-0.03277 0.05611-0.06485 0.08179-0.09055 0.06193-0.06201 0.12491-0.12283 0.18987-0.1816 0.26716-0.24163 0.55711-0.45603 0.87049-0.6342 0.74406-0.42305 1.6133-0.65987 2.4712-0.63885 0.75437 0.01847 1.4925 0.19856 2.1645 0.54545 0.36391 0.18783 0.70235 0.42276 1.0078 0.69548 0.07408 0.06616 0.14591 0.13472 0.21616 0.20497 0.02819 0.02819 0.07379 0.06333 0.09055 0.09932m-3.3855 4.2852-1.6533 0.02045 1.0002 1.7439 0.32675 0.56961 0.10224 0.17819 0.04592 0.08471h0.0058l0.20529-0.34761 0.05235-0.08763 0.02033-0.0409-0.02033-0.04089-0.04902-0.08471-0.17985-0.31256-0.43019-0.7478-0.16484-0.28627-0.08515-0.14898c0.26652-0.0055 0.53371-0.01168 0.80038-0.01168 0.07218 0 0.14413-0.0029 0.21616-0.0029 0.02334 0 0.06529-0.0082 0.08649 0.0018 0.0094 0.0044 0.01481 0.01902 0.01983 0.02746 0.01379 0.02328 0.02708 0.04682 0.0409 0.07011 0.05337 0.09009 0.10525 0.18111 0.1578 0.27166 0.18263 0.31463 0.36867 0.62742 0.54876 0.94351 0.04572 0.08024 0.09266 0.1599 0.13942 0.23953 0.01306 0.02223 0.05168 0.06733 0.04951 0.09347-0.0015 0.01884-0.02194 0.04218-0.0312 0.05842-0.02784 0.04893-0.05684 0.09715-0.08471 0.14605-0.10238 0.17971-0.20541 0.35932-0.31045 0.53748h0.0088v0.0029c-0.08676 0.13154-0.15946 0.27517-0.23786 0.41187-0.1571 0.27403-0.3151 0.54765-0.47366 0.82083-0.0581 0.10014-0.11515 0.20088-0.17354 0.30087-0.01253 0.02147-0.03771 0.09084-0.06441 0.0933-0.01636 0.0015-0.05442 0.0063-0.06844-0.0028-0.02074-0.01344-0.03578-0.05755-0.04826-0.07878-0.04037-0.06873-0.08036-0.1379-0.11938-0.2074-0.17991-0.32041-0.36806-0.63639-0.55083-0.9552-0.56459-0.98479-1.1362-1.9657-1.7013-2.9503-0.16452-0.28659-0.32947-0.573-0.49533-0.8588-0.05135-0.08845-0.10224-0.17714-0.15315-0.26582-0.02246-0.03914-0.06047-0.08442-0.07055-0.12853l1.6563-0.03213-0.09137-0.15774-0.16232-0.28335-0.49162-0.8588-0.20068-0.35053-0.05346-0.09347-0.02614-0.03789-0.04645-3e-3h-0.10513l-0.38558-0.0029 0.14272 0.25121 0.23369 0.4148 0.23532 0.41772 0.1273 0.22784-0.81498 0.01461-0.21324 0.0029-0.07831-8.6e-5 -0.03327-0.04957-0.07186-0.12269-0.27306-0.46153-0.65181-1.1305-0.30841-0.53456c0.0217-0.0064 0.04756-0.0029 0.07011-0.0029h2.6816c0.01612 0 0.04352-0.0052 0.05787 3e-3 0.02109 0.01204 0.03593 0.05518 0.04773 0.07586 0.03616 0.06336 0.07259 0.12657 0.10887 0.18987l0.4148 0.72443c0.35217 0.61428 0.70328 1.2291 1.0558 1.8432 0.11456 0.19957 0.22898 0.3992 0.34343 0.59882 0.05632 0.09827 0.12634 0.19691 0.17112 0.30087m4.627-3.7332-0.12897 0.22492-0.27458 0.47614-0.95061 1.6358-1.1772 2.0302-0.37098 0.63972-0.2057 0.35345c-0.03581-0.03812-0.05991-0.09771-0.08594-0.14313-0.05492-0.09575-0.11112-0.19081-0.1665-0.28627-0.17018-0.29322-0.34104-0.58603-0.51119-0.87925-0.33928-0.58454-0.68021-1.1681-1.0195-1.7527-0.16352-0.28174-0.34066-0.55892-0.49244-0.84712 0.02828-0.0084 0.06403-0.0029 0.09347-0.0029h0.18403c0.1878 0 0.37589-0.0058 0.56377-0.0058 0.06055 0 0.12377 0.0052 0.18403-4.97e-4 0.0227-0.0022 0.07224-0.01201 0.09237 5.85e-4 0.01312 0.0082 0.02109 0.03073 0.02863 0.04373 0.01928 0.03318 0.03862 0.0664 0.05836 0.09932 0.07493 0.12494 0.14676 0.25171 0.22142 0.37682 0.18923 0.31708 0.37615 0.63584 0.56149 0.9552 0.06464 0.11135 0.1311 0.22165 0.19571 0.333 0.02664 0.04589 0.06009 0.09126 0.08056 0.14021h0.0029l0.12146-0.21032 0.24245-0.4148 0.73565-1.259 0.20156-0.34469 0.10101-0.17527-2.8656-0.02045-0.77701-0.0058h-0.21324l-0.08065-3e-3 -0.04294-0.07294-0.10224-0.18695-0.25414-0.46445-0.12762-0.23369c0.05188-0.01534 0.124-0.0029 0.17819-0.0029h4.6533c0.17857 0 0.35909-0.0077 0.53748 5.8e-5 0.01 4.39e-4 0.01744 0.0085 0.02655 0.0087 0.01209 2.35e-4 0.0243-0.0087 0.03771-0.0088 0.10709-5.55e-4 0.2142 0 0.32132 0h0.28627c0.04224 0 0.09678-0.0091 0.13729 0.0029m-9.4059 1.2531c0.15488 0.291 0.32941 0.57367 0.49489 0.8588 0.04969 0.08559 0.09964 0.17106 0.14857 0.25706 0.02004 0.03523 0.05553 0.0775 0.06514 0.11684 0.0063 0.02579-0.0016 0.05866-0.0041 0.08471-0.0039 0.0411-0.0063 0.08433-0.0063 0.12561-2.76e-4 0.17421 0.0012 0.34665 0.01802 0.51995 0.05635 0.58171 0.25367 1.1623 0.56634 1.6563 0.27102 0.42812 0.61667 0.80587 1.0281 1.1029 0.13379 0.0966 0.27342 0.18452 0.41772 0.26453 0.04513 0.02501 0.09114 0.04881 0.13729 0.07189 0.02126 0.01063 0.05129 0.0189 0.069 0.03473 0.0326 0.02915 0.0541 0.08877 0.07583 0.12666 0.05363 0.09359 0.10796 0.18674 0.16145 0.28042 0.11366 0.1991 0.22837 0.39765 0.34343 0.5959 0.04005 0.06897 0.08097 0.13756 0.11944 0.2074 0.01382 0.02512 0.03274 0.0491 0.04291 0.07595-1.4325-0.2778-2.7038-1.233-3.3731-2.5297-0.31767-0.61547-0.5029-1.2844-0.55019-1.9747-0.03231-0.4719 0.0078-0.94898 0.11229-1.4109 0.02614-0.1155 0.05416-0.2322 0.09149-0.34469 0.01163-0.03508 0.01729-0.0919 0.04186-0.11976m9.2599 0.06134c0.04367 0.11404 0.07087 0.23775 0.09897 0.35637 0.07382 0.31136 0.11503 0.62745 0.129 0.94643 0.07831 1.7886-0.86894 3.543-2.4217 4.4442-0.32424 0.18821-0.66899 0.3425-1.0282 0.45072-0.13338 0.04019-0.2733 0.08807-0.41187 0.10598 0.01066-0.03365 0.03546-0.06581 0.05302-0.0964l0.10934-0.18987c0.11629-0.20284 0.23424-0.40478 0.3505-0.60759 0.05419-0.09453 0.10761-0.18955 0.16308-0.28335 0.02141-0.03625 0.03999-0.08918 0.07005-0.11863 0.01799-0.01764 0.0496-0.02705 0.07192-0.03841 0.04542-0.02308 0.09012-0.04802 0.13437-0.07329 0.14036-0.08012 0.27668-0.16773 0.40603-0.26474 0.43372-0.32529 0.80368-0.73734 1.0695-1.2109 0.26202-0.4667 0.42704-0.98087 0.484-1.5131 0.01674-0.15625 0.0217-0.31308 0.02094-0.4703-2.42e-4 -0.0475-0.0039-0.09561-6e-3 -0.14313-9.08e-4 -0.02103-0.0062-0.04323-0.0017-0.06426 0.0086-0.03949 0.04461-0.08202 0.06482-0.11684 0.04566-0.07867 0.09093-0.15762 0.13604-0.23661 0.11807-0.20687 0.23567-0.41436 0.3571-0.61927 0.03435-0.05801 0.06748-0.11681 0.10107-0.17526 0.01487-0.02588 0.02851-0.06085 0.04966-0.08179m-2.553 0.10808-0.12485 0.25706-0.24613 0.50827h-0.0058l-0.24861-0.50827-0.12528-0.25706h0.75072" fill="#dabf53"/>
 </g>
</svg>
